# xmcd
#
# Track frame offsets:
#	150
#	14915
#	28092
#	44470
#	55447
#	70165
#	82990
#	98300
#	109542
#	124892
#	140275
#	158825
#	176800
#	191085
#	203790
#	220557
#
# Disc length: 3134
#
# Revision: 3
# Processed by: cddbd v1.5.1PL0 Copyright (c) Steve Scherf et al.
# Submitted via: EasyCDDAExtractor 5.1.0
# Normalized: r1:DSETVAR1,TSWAP
#
DISCID=de0c3c10
DTITLE=Various Artist - Top Country Hits Vol 4
DYEAR=1900
DGENRE=
TTITLE0=Steve Wariner - Life's Highway
TTITLE1=Merle Haggard - The Way I am
TTITLE2=Steve Earle - Hillbilly Highway
TTITLE3=Patty Loveless - A Little Bit In Love
TTITLE4=The Bellamy Brothers - Let your Love Flow
TTITLE5=Conway Twitty - Tight Fittin' Jeans
TTITLE6=Oak Ridge Boys - I Wish You Could Have Turned My Head
TTITLE7=Tanya Tucker - Pecos Promenade
TTITLE8=John Schneider - What's A Memory Like You
TTITLE9=John Conlee - As Long As I'm Rocking With You
TTITLE10=Don Williams - I Believe In You
TTITLE11=Ed Bruce - My First Taste Of Texas
TTITLE12=Conway Twitty and Loretta Lynn - I Still Believe In Waltzes
TTITLE13=Barbara Mandrell - One of a Kind Pair Of Fools
TTITLE14=Lee Greenwood - Somebody's Gonna Love You
TTITLE15=Skip Ewing - Burnin' A Hole In My Heart
EXTD=
EXTT0=
EXTT1=
EXTT2=
EXTT3=
EXTT4=
EXTT5=
EXTT6=
EXTT7=
EXTT8=
EXTT9=
EXTT10=
EXTT11=
EXTT12=
EXTT13=
EXTT14=
EXTT15=
PLAYORDER=
